<mxfile host="app.diagrams.net" modified="2023-10-02T08:17:52.770Z" agent="Mozilla/5.0 (Windows NT 10.0; Win64; x64; rv:109.0) Gecko/20100101 Firefox/118.0" version="22.0.0" etag="WhNqEcXQIr-kDGSLaOBS" type="github">
  <diagram name="Page-1" id="oHbBpfMNV7-MWkwOHZMf">
    <mxGraphModel>
      <root>
        <mxCell id="0" />
        <mxCell id="1" parent="0" />
      </root>
    </mxGraphModel>
  </diagram>
</mxfile>
